/* XPM */
static char * stargate_xpm[] = {
"64 64 458 2",
"  	c None",
". 	c #000000",
"+ 	c #0B0B0B",
"@ 	c #282828",
"# 	c #2B2B2B",
"$ 	c #2A2A2A",
"% 	c #292929",
"& 	c #262626",
"* 	c #2C2C2C",
"= 	c #323231",
"- 	c #232323",
"; 	c #121212",
"> 	c #020202",
", 	c #262627",
"' 	c #38393C",
") 	c #3D3E41",
"! 	c #474748",
"~ 	c #424243",
"{ 	c #39393B",
"] 	c #3F3E3C",
"^ 	c #4C4C4B",
"/ 	c #515151",
"( 	c #4D4D4D",
"_ 	c #3F3F3D",
": 	c #373838",
"< 	c #444546",
"[ 	c #3B3D3F",
"} 	c #353637",
"| 	c #232424",
"1 	c #212121",
"2 	c #2F3030",
"3 	c #383939",
"4 	c #303233",
"5 	c #33363A",
"6 	c #35373C",
"7 	c #35373B",
"8 	c #3C3D3F",
"9 	c #3E3F3F",
"0 	c #42413F",
"a 	c #4D4D4C",
"b 	c #434341",
"c 	c #3D3D3D",
"d 	c #3C3E40",
"e 	c #373A3E",
"f 	c #36383D",
"g 	c #36383C",
"h 	c #303235",
"i 	c #393B3B",
"j 	c #313131",
"k 	c #202020",
"l 	c #1B1C1C",
"m 	c #313232",
"n 	c #333434",
"o 	c #373938",
"p 	c #303131",
"q 	c #2C2E2E",
"r 	c #292A2C",
"s 	c #252628",
"t 	c #242526",
"u 	c #1D1E1F",
"v 	c #292A2D",
"w 	c #38393B",
"x 	c #3E3E3C",
"y 	c #41403E",
"z 	c #3D3D3B",
"A 	c #393B3D",
"B 	c #2C2E30",
"C 	c #202021",
"D 	c #252527",
"E 	c #28292A",
"F 	c #272829",
"G 	c #2E2F2F",
"H 	c #313332",
"I 	c #393A3A",
"J 	c #323232",
"K 	c #2D2D2D",
"L 	c #171717",
"M 	c #262728",
"N 	c #3A3B3D",
"O 	c #363737",
"P 	c #3A3B3B",
"Q 	c #303231",
"R 	c #292A2B",
"S 	c #232325",
"T 	c #1B1B1C",
"U 	c #232426",
"V 	c #1F2021",
"W 	c #28292C",
"X 	c #393A3D",
"Y 	c #3C3C3B",
"Z 	c #393A3C",
"` 	c #28292B",
" .	c #212223",
"..	c #1C1C1D",
"+.	c #262628",
"@.	c #28282A",
"#.	c #222324",
"$.	c #2A2B2C",
"%.	c #272728",
"&.	c #323433",
"*.	c #393B3A",
"=.	c #363738",
"-.	c #1D1D1D",
";.	c #38393A",
">.	c #3E4044",
",.	c #2D2F32",
"'.	c #2F3131",
").	c #27282A",
"!.	c #1E1E1F",
"~.	c #242426",
"{.	c #181819",
"].	c #1B1C1D",
"^.	c #3B3C40",
"/.	c #38393D",
"(.	c #3C3D41",
"_.	c #272729",
":.	c #212123",
"<.	c #1B1B1B",
"[.	c #2B2C2D",
"}.	c #313333",
"|.	c #303234",
"1.	c #3E4043",
"2.	c #323233",
"3.	c #404142",
"4.	c #404143",
"5.	c #333539",
"6.	c #1F1F20",
"7.	c #242527",
"8.	c #1A1A1B",
"9.	c #19191A",
"0.	c #343437",
"a.	c #35363B",
"b.	c #35363A",
"c.	c #202122",
"d.	c #1E1F20",
"e.	c #252627",
"f.	c #34373B",
"g.	c #434445",
"h.	c #3B3C3D",
"i.	c #0F0F0F",
"j.	c #383837",
"k.	c #323437",
"l.	c #1D1D1E",
"m.	c #222325",
"n.	c #27292A",
"o.	c #242627",
"p.	c #323536",
"q.	c #353839",
"r.	c #36373C",
"s.	c #343738",
"t.	c #333637",
"u.	c #232425",
"v.	c #262829",
"w.	c #191919",
"x.	c #262729",
"y.	c #2A2B2E",
"z.	c #36393C",
"A.	c #3E3F41",
"B.	c #3B3B3C",
"C.	c #2B2A2A",
"D.	c #434343",
"E.	c #474746",
"F.	c #3E3E3D",
"G.	c #292B2C",
"H.	c #303333",
"I.	c #373B3C",
"J.	c #2F3233",
"K.	c #343839",
"L.	c #2C2F30",
"M.	c #333536",
"N.	c #2E3030",
"O.	c #2D2D30",
"P.	c #2D2E2F",
"Q.	c #313334",
"R.	c #323535",
"S.	c #2B2D2E",
"T.	c #2A2D2E",
"U.	c #2C2E2F",
"V.	c #252728",
"W.	c #1D1E1E",
"X.	c #27282B",
"Y.	c #3F3F3E",
"Z.	c #454544",
"`.	c #363636",
" +	c #505050",
".+	c #4A4A49",
"++	c #3D3D3C",
"@+	c #393B3E",
"#+	c #2B2E2E",
"$+	c #3B3F40",
"%+	c #383C3D",
"&+	c #333636",
"*+	c #2B2C2C",
"=+	c #36393A",
"-+	c #393C3D",
";+	c #212323",
">+	c #36383B",
",+	c #4B4B4A",
"'+	c #4E4E4E",
")+	c #050505",
"!+	c #3B3A39",
"~+	c #454443",
"{+	c #494847",
"]+	c #494948",
"^+	c #3D3C3A",
"/+	c #343538",
"(+	c #1A1B1B",
"_+	c #2A2C2D",
":+	c #3A3D3E",
"<+	c #303030",
"[+	c #353535",
"}+	c #373737",
"|+	c #333333",
"1+	c #2C2D2D",
"2+	c #2D2E2E",
"3+	c #383B3C",
"4+	c #252526",
"5+	c #3D3D3A",
"6+	c #484746",
"7+	c #424240",
"8+	c #393938",
"9+	c #0E0E0F",
"0+	c #3A3B3C",
"a+	c #3E3F3E",
"b+	c #3C3D3C",
"c+	c #3E3D3B",
"d+	c #3E3F43",
"e+	c #2E2E30",
"f+	c #222424",
"g+	c #343434",
"h+	c #111111",
"i+	c #141414",
"j+	c #212324",
"k+	c #303133",
"l+	c #3B3B3F",
"m+	c #3F3F3C",
"n+	c #3C3C3C",
"o+	c #3F4040",
"p+	c #383A3B",
"q+	c #333435",
"r+	c #323436",
"s+	c #323335",
"t+	c #2F3032",
"u+	c #353639",
"v+	c #2C2D30",
"w+	c #3A3D3F",
"x+	c #161616",
"y+	c #2C2C2D",
"z+	c #2D2F30",
"A+	c #393A3E",
"B+	c #313336",
"C+	c #343638",
"D+	c #424344",
"E+	c #2E2E2F",
"F+	c #3C3E42",
"G+	c #34363A",
"H+	c #2E2F31",
"I+	c #343539",
"J+	c #333438",
"K+	c #242424",
"L+	c #090909",
"M+	c #070707",
"N+	c #2F2F2F",
"O+	c #323434",
"P+	c #37383C",
"Q+	c #292B2D",
"R+	c #393C3F",
"S+	c #242425",
"T+	c #313236",
"U+	c #323336",
"V+	c #2C2D2E",
"W+	c #0E0E0E",
"X+	c #2D2E30",
"Y+	c #2D2E31",
"Z+	c #2B2D2F",
"`+	c #2D2F31",
" @	c #3D3E40",
".@	c #3A3C3B",
"+@	c #373A3B",
"@@	c #2E2E2E",
"#@	c #222222",
"$@	c #272727",
"%@	c #2D2F2F",
"&@	c #282A2B",
"*@	c #1C1D1D",
"=@	c #3E403F",
"-@	c #151515",
";@	c #393A39",
">@	c #212224",
",@	c #292C2C",
"'@	c #181818",
")@	c #1E1E1E",
"!@	c #212122",
"~@	c #353636",
"{@	c #171718",
"]@	c #1A1A1A",
"^@	c #393D3E",
"/@	c #1C1C1C",
"(@	c #373B3B",
"_@	c #1F1F21",
":@	c #252525",
"<@	c #323333",
"[@	c #29292B",
"}@	c #1E1F1F",
"|@	c #2E3031",
"1@	c #1F1F1F",
"2@	c #292A29",
"3@	c #343635",
"4@	c #191A1A",
"5@	c #313435",
"6@	c #222224",
"7@	c #2A2C2C",
"8@	c #383A39",
"9@	c #3B3C3C",
"0@	c #3A3E3F",
"a@	c #080808",
"b@	c #101010",
"c@	c #383938",
"d@	c #37383A",
"e@	c #2B2C2E",
"f@	c #353738",
"g@	c #323334",
"h@	c #404245",
"i@	c #181919",
"j@	c #1E2020",
"k@	c #2D2D2E",
"l@	c #010101",
"m@	c #313434",
"n@	c #2C2E31",
"o@	c #3E3F42",
"p@	c #222323",
"q@	c #3D3F41",
"r@	c #2A2B2D",
"s@	c #313438",
"t@	c #414244",
"u@	c #303031",
"v@	c #414243",
"w@	c #26282A",
"x@	c #1C1D1E",
"y@	c #2E3032",
"z@	c #2A2A2B",
"A@	c #313337",
"B@	c #2F3031",
"C@	c #353536",
"D@	c #383A3C",
"E@	c #3E3D3C",
"F@	c #3F3F3F",
"G@	c #313235",
"H@	c #131313",
"I@	c #262828",
"J@	c #3B3B3A",
"K@	c #4A4A4A",
"L@	c #403F3D",
"M@	c #404040",
"N@	c #2B2C2F",
"O@	c #2F3133",
"P@	c #2C2D2F",
"Q@	c #333437",
"R@	c #434240",
"S@	c #4B4B4B",
"T@	c #4C4B4B",
"U@	c #403F3C",
"V@	c #3D3C3D",
"W@	c #3D3E42",
"X@	c #323337",
"Y@	c #3B3B39",
"Z@	c #484848",
"`@	c #444342",
" #	c #40403D",
".#	c #36373B",
"+#	c #34353A",
"@#	c #2D2D2F",
"##	c #454543",
"$#	c #484847",
"%#	c #3D3E3F",
"&#	c #2F2F32",
"*#	c #333337",
"=#	c #2E2F32",
"-#	c #333538",
";#	c #303132",
">#	c #2B2B2E",
",#	c #303134",
"'#	c #3D3D3E",
")#	c #363739",
"!#	c #3E3F40",
"~#	c #3B3E3F",
"{#	c #202022",
"]#	c #040404",
"^#	c #333738",
"/#	c #2E3033",
"(#	c #424345",
"_#	c #2E3132",
":#	c #2B2E2F",
"<#	c #393C40",
"[#	c #414346",
"}#	c #1E1E20",
"|#	c #2D3031",
"1#	c #2C2E2D",
"2#	c #3C3D3D",
"3#	c #2E2F30",
"4#	c #1D1D1F",
"5#	c #363A3B",
"6#	c #171818",
"7#	c #262727",
"8#	c #2D2F2E",
"9#	c #3C4041",
"0#	c #313536",
"a#	c #2E3131",
"b#	c #333534",
"c#	c #2C2D2C",
"d#	c #3B3C3B",
"e#	c #29292A",
"f#	c #383A3D",
"g#	c #303336",
"h#	c #030303",
"i#	c #3A3B3F",
"j#	c #232526",
"k#	c #35393A",
"l#	c #282A2D",
"m#	c #2A2B2B",
"n#	c #434345",
"o#	c #35373A",
"p#	c #323438",
"q#	c #323338",
"r#	c #2F3033",
"s#	c #454546",
"t#	c #3C3C3D",
"u#	c #3E3E40",
"v#	c #3A3C3E",
"w#	c #3A3B3E",
"x#	c #2F3132",
"y#	c #333439",
"z#	c #38383B",
"A#	c #3D3E3E",
"B#	c #3A3A3A",
"C#	c #40403E",
"D#	c #3D3C39",
"E#	c #3E3D3A",
"F#	c #39393C",
"G#	c #41403C",
"H#	c #444442",
"I#	c #484747",
"J#	c #4F4F4F",
"K#	c #464544",
"L#	c #3A3A3C",
"M#	c #292C2D",
"N#	c #444341",
"O#	c #414141",
"P#	c #272726",
"Q#	c #323435",
"R#	c #3C3C3E",
"S#	c #303236",
"T#	c #2D2D2C",
"U#	c #3B3C3E",
"V#	c #2A2C2E",
"W#	c #383838",
"X#	c #3B3D40",
"Y#	c #373739",
". . . . . . . . . . . . . . . . . . . . . . . . . . . . . . . . . . . . . . . . . . . . . . . . . . . . . . . . . . . . . . . . ",
". . . . . . . . . . . . . . . . . . . . . . . . . . . . . . . . . . . . . . . . . . . . . . . . . . . . . . . . . . . . . . . . ",
". . . . . . . . . . . . . . . . . . . . . . . . . . . . . . . . . . . . . . . . . . . . . . . . . . . . . . . . . . . . . . . . ",
". . . . . . . . . . . . . . . . . . . . . . . . . . . . . . . . . . . . . . . . . . . . . . . . . . . . . . . . . . . . . . . . ",
". . . . . . . . . . . . . . . . . . . . . . . . . . . . . . . . . . . . . . . . . . . . . . . . . . . . . . . . . . . . . . . . ",
". . . . . . . . . . . . . . . . . . . . . . . . . . . . . . . . . . . . . . . . . . . . . . . . . . . . . . . . . . . . . . . . ",
". . . . . . . . . . . . . . . . . . . . . . . . . . . . . . . . . . . . . . . . . . . . . . . . . . . . . . . . . . . . . . . . ",
". . . . . . . . . . . . . . . . . . . . . . . . . . . . . . . . . . . . . . . . . . . . . . . . . . . . . . . . . . . . . . . . ",
". . . . . . . . . . . . . . . . . . . . . . . . . . . . . . . . . . . . . . . . . . . . . . . . . . . . . . . . . . . . . . . . ",
". . . . . . . . . . . . . . . . . . . . . . . . . . . . . . . . . . . . . . . . . . . . . . . . . . . . . . . . . . . . . . . . ",
". . . . . . . . . . . . . . . . . . . . . . . . . . . . . . . . . . . . . . . . . . . . . . . . . . . . . . . . . . . . . . . . ",
". . . . . . . . . . . . . . . . . . . . . . . . . . . + @ # $ % & * = - ; > . . . . . . . . . . . . . . . . . . . . . . . . . . ",
". . . . . . . . . . . . . . . . . . . . . . . . , ' ) ! ~ { ] ^ / ( _ : < < [ } | . . . . . . . . . . . . . . . . . . . . . . . ",
". . . . . . . . . . . . . . . . . . . . . . 1 2 3 4 5 6 7 8 9 0 a b c d e f g h i j k . . . . . . . . . . . . . . . . . . . . . ",
". . . . . . . . . . . . . . . . . . . l m n o p q r s t u v w x y z A B C D E F G H I J K L . . . . . . . . . . . . . . . . . . ",
". . . . . . . . . . . . . . . . M N O P Q M R S T F U T L V W X Y Z `  .L ..+.@.V #.$.%.&.*.3 =.-.. . . . . . . . . . . . . . . ",
". . . . . . . . . . . . . . T ;.>.,.'.R t ).M ..L !.~.{.L ].D ^./.(._...L T ~.:.L <._.).M [.}.|.1.2.. . . . . . . . . . . . . . ",
". . . . . . . . . . . . . $ 3.4.5.s ` V L 6.7...L 8.U 9.L l 7.0.a.b.+.8.L T D <.L T ~.c.L d.r e.f.g.h.1 . . . . . . . . . . . . ",
". . . . . . . . . . . i.j.Y A k.7.@.D l.L {.S 6.L l m.n.o.p.q.k.r.5.s.t.u.v.U l L l.~.w.L V x.R y.z.A.B.C.. . . . . . . . . . . ",
". . . . . . . . . . <.D.E.F.8 7.L l D 6.L L  .G.H.I.J.K.L.t.M.N.O.P.Q.R.S.q.T.K.U.V. .L L u.D W.L X.A.Y.Z.`.. . . . . . . . . . ",
". . . . . . . . . + D. +.+++@+7.L L 6.S ].#+I.$+%+&+P.*+* K K K * K K K K # *+Q.=+-+p.;+l.7.d.L L ~.>+x ,+'+c )+. . . . . . . . ",
". . . . . . . . L !+~+{+]+^+/+D ..L (+U._+:+s.2 * K j <+[+`.<+j }+j |+[+|+<+<+K 1+2+R.3+G.s w.L T 4+/+5+,+6+7+8+> . . . . . . . ",
". . . . . . . 9+h.0+a+b+c+c+d+e+u.f+n.3+U.*+K j g+g+# 1 h+. . . . . . . i+1 & g+g+j K K [.=+j+8. .k+l+m+z n+o+p+q+. . . . . . . ",
". . . . . . . ;.g.>+r+s+t+N /.u+v+w+4 *+K j g+% w.. . . . . . . . . . . . . . . x+# g+j K y+z+t.` A+b.) B+C+p+@+D+E+. . . . . . ",
". . . . . . P.F+G+7...c.7.H+I+r.J+Q.K <+g+K+L+. . . . . . . . . . . . . . . . . . . M+@ g+N+K O+J+r.P+s+~.:.d.Q+R+1.S+. . . . . ",
". . . . . . 4.G.r  .L L u s T+U+V+K j # W+. . . . . . . . . . . . . . . . . . . . . . . ; K j K X+I+Y+~...L L e.Z+`+ @. . . . . ",
". . . . . 1 .@$.x.x.(+L w.t.+@2+@@J #@. . . . . . . . . . . . . . . . . . . . . . . . . . > $@|+K %@+@&@L L *@r +.$.=@-@. . . . ",
". . . . . ;@N.>@ .t ~.u ,@z+G @@g+'@. . . . . . . . . . . . . . . . . . . . . . . . . . . . . )@<+K 4 S.V u x.S !@F H ~@. . . . ",
". . . . %.n [.{@L ]@:.&@^@2+@@g+'@. . . . . . . . . . . . . . . . . . . . . . . . . . . . . . . /@J K U.(@x._@'@L T V+o :@. . . ",
". . . . <@e.[@ .L L }@|@[.K g+1@. . . . . . . . . . . . . . . . . . . . . . . . . . . . . . . . . & j K S._+(+L '@u.` M 3 . . . ",
". . . 2@3@` t D c.4@5@=+* j # . . . . . . . . . . . . . . . . . . . . . . . . . . . . . . . . . . . @@N+* :+L.8.6@e.x.7@8@- . . ",
". . -@9@G l.]@.. .n.0@E+@@j a@. . . . . . . . . . . . . . . . . . . . . . . . . . . . . . . . . . . b@g+K O+0@).6@l..._.Q c@> . ",
". . d@n e@l.L L 4@t.t.K g+/@. . . . . . . . . . . . . . . . . . . . . . . . . . . . . . . . . . . . . - J K ^@5@9.L L D V+f@g@. ",
". . h@M +.).!.i@j@^@k@@@`.. . . . . . . . . . . . . . . . . . . . . . . . . . . . . . . . . . . . . . l@j @@m@$+W.9.c.).+.n@o@. ",
". p@q@Z+_.S D u._+M.K J #@. . . . . . . . . . . . . . . . . . . . . . . . . . . . . . . . . . . . . . . #@j 1+3+&@m.D e.r@s@t@]@",
". u@v@w@4@9.w.x@y@z@K g+. . . . . . . . . . . . . . . . . . . . . . . . . . . . . . . . . . . . . . . . > [+K G.`+ .T 8.6.A@v@B@",
". C@8 ` 9.L L 8.|@* @@% . . . . . . . . . . . . . . . . . . . . . . . . . . . . . . . . . . . . . . . . . % @@N.s.w.L L c.u+D@`.",
". E@F@G@s d.4@S.Q.K g+w.. . . . . . . . . . . . . . . . . . . . . . . . . . . . . . . . . . . . . . . . . H@[+$ 5@I@l.S W ) J@Y.",
". K@L@M@Y+N@x.p.}.K }+. . . . . . . . . . . . . . . . . . . . . . . . . . . . . . . . . . . . . . . . . . . g+K I.O@_.P@Q@F.R@S@",
". '+T@U@V@W@b.X@%@@@N+. . . . . . . . . . . . . . . . . . . . . . . . . . . . . . . . . . . . . . . . . . . N+@@4 5.b.(.Y@y '+S@",
". Z@`@ #n+.#a.+## N+$ . . . . . . . . . . . . . . . . . . . . . . . . . . . . . . . . . . . . . . . . . . . * N+@#r.a..#J@ ###$#",
". ] 9 %#&#*#=#-## @@:@. . . . . . . . . . . . . . . . . . . . . . . . . . . . . . . . . . . . . . . . . . . @ N+;#-#>#,#=#'#F.z ",
". )#!#).:.c.x.~#*+K :@. . . . . . . . . . . . . . . . . . . . . . . . . . . . . . . . . . . . . . . . . . . K+@@'.%+ .V {#v N B.",
". A.Y+'@L L c.^@# J ]#. . . . . . . . . . . . . . . . . . . . . . . . . . . . . . . . . . . . . . . . . . . ]@K 2+^#w.L L l./#(#",
". ) v+l.'@x+4@_## <+i+. . . . . . . . . . . . . . . . . . . . . . . . . . . . . . . . . . . . . . . . . . . <.K *+:#'@L L V `+q@",
". <#` ` +.~.u.+@* K K+. . . . . . . . . . . . . . . . . . . . . . . . . . . . . . . . . . . . . . . . . . . - @@2+5@S 6@S+_.` [#",
". k.E _. .}#..|#1+@@K+. . . . . . . . . . . . . . . . . . . . . . . . . . . . . . . . . . . . . . . . . . . $ N+|@_#T l V ).1#(#",
". 2#3#4#L L i@5#O+N+$ . . . . . . . . . . . . . . . . . . . . . . . . . . . . . . . . . . . . . . . . . . . # N+q.p.6#L L  .3@K ",
". <+'.D T 8.T p.f@@@N+. . . . . . . . . . . . . . . . . . . . . . . . . . . . . . . . . . . . . . . . . . . j K -+_#T x@c.$.*./@",
". 7#8#[@e.m.S z+-+* }+. . . . . . . . . . . . . . . . . . . . . . . . . . . . . . . . . . . . . . . . . . > `.K 9#&@:.S 7.E I > ",
". . : x.~.8.6#V 9#2+g+]@. . . . . . . . . . . . . . . . . . . . . . . . . . . . . . . . . . . . . . . . . #@N+}.0@(+{@w.).*+J l@",
". . I P.l.L L i@0#q N+@@. . . . . . . . . . . . . . . . . . . . . . . . . . . . . . . . . . . . . . . . . <+@@U.a#6#L L :.b#2 . ",
". . c#'.E  .V :.M p.* g+a@. . . . . . . . . . . . . . . . . . . . . . . . . . . . . . . . . . . . . . . ; g+y+s.t #.6@M S.d#w.. ",
". . <@'.F D t c.V ^#e#N+% . . . . . . . . . . . . . . . . . . . . . . . . . . . . . . . . . . . . . . . K @@R &@4@d.~.e.F A.'@. ",
". . 1 f#).` 9.L L n.p.K g+b@. . . . . . . . . . . . . . . . . . . . . . . . . . . . . . . . . . . . . <.g+* %+t L L w._.g#) h#. ",
". . . 0+i#_.L L l.j#k#G @@K . . . . . . . . . . . . . . . . . . . . . . . . . . . . . . . . . . . . a@g+@@%@r+u.}#T <.l#8 E+. . ",
". . . m#n#o#r@M s /+p#,#* J :@. . . . . . . . . . . . . . . . . . . . . . . . . . . . . . . . . . . K N+* A@q#U+x.s r#N s#i.. . ",
". . . . c t#u#v#(.w#+#+#x#K [+'@. . . . . . . . . . . . . . . . . . . . . . . . . . . . . . . . . K+j K 4 +#y#P+z#'#A#B#g+l@. . ",
". . . . @ C#c+D#E#F#i#P@0@N.K [+L . . . . . . . . . . . . . . . . . . . . . . . . . . . . . . . :@|+K P.I.s u+X G#R@H#Y.L . . . ",
". . . . . n+ +,+z o#x.#.Q.z+$ N+n+-@. . . . . . . . . . . . . . . . . . . . . . . . . . . . . $@|+K P.n.u d.D O@_ I#J#j l@. . . ",
". . . . . '@Z@K#L#P@:.L 6#_+t.$ @@g+'@. . . . . . . . . . . . . . . . . . . . . . . . . . . - |+K e#p.M#L L u X+t#N#O#M+. . . . ",
". . . . . . P#x !#B L L *@t x.Q#2+K `.#@. . . . . . . . . . . . . . . . . . . . . . . . . K |+K 3#3+j#~.:.{@L H+Z  #k . . . . . ",
". . . . . . . K R#S#s e.D S x@s.:+G K J * M+. . . . . . . . . . . . . . . . . . . . . ; |+<+K }.^@I@L 6.7.).` o#v@T#l@. . . . . ",
". . . . . . . . I U#V#D 7.'@L u 5@$+O+y+N+`.-.. . . . . . . . . . . . . . . . . . . 1@W#N+K q.%+r l.L L t e.n@X#Y#)+. . . . . . "};
