/* XPM */
static char * text_scifi8_xpm[] = {
"64 64 385 2",
"  	c None",
". 	c #FEFEFE",
"+ 	c #FBFBFB",
"@ 	c #FAFAFA",
"# 	c #F9F9F9",
"$ 	c #F6F6F6",
"% 	c #F3F3F3",
"& 	c #F7F7F7",
"* 	c #F8F8F8",
"= 	c #DADADA",
"- 	c #D8D8D8",
"; 	c #D9D9D9",
"> 	c #D7D7D7",
", 	c #CFCFCF",
"' 	c #B8B8B8",
") 	c #8B8989",
"! 	c #9B9998",
"~ 	c #C7C7C6",
"{ 	c #D6D6D6",
"] 	c #D4D4D4",
"^ 	c #D5D5D5",
"/ 	c #CDCDCD",
"( 	c #CECECE",
"_ 	c #D1D1D1",
": 	c #C6C6C6",
"< 	c #D2D2D2",
"[ 	c #C7C7C7",
"} 	c #C8C8C8",
"| 	c #BCBCBC",
"1 	c #B4B4B4",
"2 	c #B1B1B1",
"3 	c #B9B9B9",
"4 	c #CCCCCC",
"5 	c #C5C5C5",
"6 	c #A2A0A1",
"7 	c #AAA9A8",
"8 	c #D3D3D3",
"9 	c #CFCFD0",
"0 	c #B9B8B8",
"a 	c #8B8A89",
"b 	c #C5C5C4",
"c 	c #C8C9C9",
"d 	c #C9C9C9",
"e 	c #C3C3C3",
"f 	c #CACACA",
"g 	c #C2C2C2",
"h 	c #B3B3B3",
"i 	c #B6B5B6",
"j 	c #A3A1A1",
"k 	c #ACABAB",
"l 	c #D0D0D0",
"m 	c #989696",
"n 	c #BABABA",
"o 	c #BBBBBB",
"p 	c #AFAEAE",
"q 	c #ACABAA",
"r 	c #ABAAAA",
"s 	c #AAA9A9",
"t 	c #AEADAD",
"u 	c #B0AFAF",
"v 	c #AFAEAD",
"w 	c #ABABAA",
"x 	c #B1B0AF",
"y 	c #A8A7A7",
"z 	c #A6A5A4",
"A 	c #AAA9AA",
"B 	c #C4C4C4",
"C 	c #A7A5A5",
"D 	c #AAA8A8",
"E 	c #D4D3D3",
"F 	c #C1C1C1",
"G 	c #8A8889",
"H 	c #979595",
"I 	c #A5A4A4",
"J 	c #A5A3A4",
"K 	c #A3A2A3",
"L 	c #A1A0A0",
"M 	c #A4A4A4",
"N 	c #A2A1A1",
"O 	c #A2A2A2",
"P 	c #9C9B9C",
"Q 	c #8C8A8B",
"R 	c #A4A3A3",
"S 	c #C9C9C8",
"T 	c #ABAAA9",
"U 	c #999897",
"V 	c #BAB9B9",
"W 	c #BBBABB",
"X 	c #918F8E",
"Y 	c #9E9C9D",
"Z 	c #C3C2C3",
"` 	c #CBCBCB",
" .	c #C0BFC0",
"..	c #AAA8A9",
"+.	c #898887",
"@.	c #BFBFBF",
"#.	c #CCCCCB",
"$.	c #AEADAE",
"%.	c #999797",
"&.	c #B9B9B8",
"*.	c #959493",
"=.	c #BCBBBB",
"-.	c #A8A8A7",
";.	c #898786",
">.	c #A7A6A6",
",.	c #ADACAC",
"'.	c #BDBCBC",
").	c #C1C0C0",
"!.	c #ACABAC",
"~.	c #868484",
"{.	c #C6C6C5",
"].	c #999796",
"^.	c #959494",
"/.	c #D2D1D2",
"(.	c #D1D0D0",
"_.	c #858383",
":.	c #8E8C8C",
"<.	c #A9A7A7",
"[.	c #D1D2D2",
"}.	c #B7B7B7",
"|.	c #C7C6C6",
"1.	c #A4A4A3",
"2.	c #C8C7C8",
"3.	c #8F8D8D",
"4.	c #989796",
"5.	c #BABAB9",
"6.	c #969494",
"7.	c #CCCBCB",
"8.	c #999898",
"9.	c #B0AFAE",
"0.	c #8F8E8D",
"a.	c #9C9C9B",
"b.	c #9A9899",
"c.	c #949392",
"d.	c #C8C8C7",
"e.	c #979696",
"f.	c #C6C5C5",
"g.	c #9D9B9B",
"h.	c #D3D3D2",
"i.	c #989797",
"j.	c #CAC9C9",
"k.	c #CBCACA",
"l.	c #908F8E",
"m.	c #CACAC9",
"n.	c #8E8C8B",
"o.	c #9E9D9D",
"p.	c #D3D2D2",
"q.	c #969595",
"r.	c #CFCECF",
"s.	c #B8B8B7",
"t.	c #8D8B8B",
"u.	c #9D9C9B",
"v.	c #9B9A99",
"w.	c #91908F",
"x.	c #D8D7D8",
"y.	c #9C9B9B",
"z.	c #D2D1D1",
"A.	c #BFBEBE",
"B.	c #C4C4C3",
"C.	c #D0D0CF",
"D.	c #CCCBCC",
"E.	c #8E8D8C",
"F.	c #8D8B8A",
"G.	c #9C9A9A",
"H.	c #949393",
"I.	c #BDBDBD",
"J.	c #CDCDCC",
"K.	c #9D9C9C",
"L.	c #C7C6C7",
"M.	c #C0C0C1",
"N.	c #8B8A8A",
"O.	c #CECDCE",
"P.	c #BCBBBC",
"Q.	c #8C8A8A",
"R.	c #8C8B8A",
"S.	c #9A9999",
"T.	c #C0C0C0",
"U.	c #9C9B99",
"V.	c #929090",
"W.	c #BEBEBD",
"X.	c #A9A8A8",
"Y.	c #D6D5D5",
"Z.	c #F5F5F5",
"`.	c #969394",
" +	c #9F9E9E",
".+	c #817F7F",
"++	c #999798",
"@+	c #929190",
"#+	c #B7B6B7",
"$+	c #949492",
"%+	c #949292",
"&+	c #CECDCD",
"*+	c #979695",
"=+	c #8A8888",
"-+	c #7F7E7C",
";+	c #999998",
">+	c #D9D8D9",
",+	c #9A9898",
"'+	c #C0BFBF",
")+	c #868583",
"!+	c #9F9E9D",
"~+	c #BFBEBF",
"{+	c #969594",
"]+	c #898886",
"^+	c #ADABAB",
"/+	c #ACAAAB",
"(+	c #A6A4A4",
"_+	c #A7A5A6",
":+	c #918F8F",
"<+	c #C5C4C4",
"[+	c #B5B4B4",
"}+	c #8A8887",
"|+	c #888786",
"1+	c #D7D6D7",
"2+	c #8B8A88",
"3+	c #969495",
"4+	c #B4B3B3",
"5+	c #B7B6B6",
"6+	c #B2B1B1",
"7+	c #B3B2B2",
"8+	c #B1B0B1",
"9+	c #959393",
"0+	c #8A8987",
"a+	c #898787",
"b+	c #A0A09F",
"c+	c #C2C1C2",
"d+	c #B4B3B4",
"e+	c #8C8B89",
"f+	c #878685",
"g+	c #888686",
"h+	c #888685",
"i+	c #9E9E9D",
"j+	c #B6B6B6",
"k+	c #B4B4B3",
"l+	c #A1A1A0",
"m+	c #9C9A9B",
"n+	c #9E9D9C",
"o+	c #9E9C9B",
"p+	c #C9C8C8",
"q+	c #B5B4B5",
"r+	c #8E8D8B",
"s+	c #888787",
"t+	c #898788",
"u+	c #8A8988",
"v+	c #A3A2A2",
"w+	c #C8C7C7",
"x+	c #A1A09F",
"y+	c #9B9999",
"z+	c #9C9B9A",
"A+	c #A09F9F",
"B+	c #A09E9E",
"C+	c #B5B5B4",
"D+	c #C2C1C1",
"E+	c #C4C3C3",
"F+	c #BEBEBE",
"G+	c #B1B0B0",
"H+	c #908E8E",
"I+	c #8D8C8B",
"J+	c #A8A7A6",
"K+	c #9B9A9A",
"L+	c #AFAEAF",
"M+	c #929091",
"N+	c #B5B5B5",
"O+	c #B8B7B7",
"P+	c #ACACAB",
"Q+	c #8F8D8C",
"R+	c #8D8C8C",
"S+	c #8B8988",
"T+	c #9F9F9E",
"U+	c #9F9D9D",
"V+	c #8E8B8B",
"W+	c #898686",
"X+	c #858482",
"Y+	c #9D9B9C",
"Z+	c #CECECF",
"`+	c #908F8F",
" @	c #868483",
".@	c #858382",
"+@	c #7E7C7A",
"@@	c #D7D7D8",
"#@	c #8B8888",
"$@	c #939292",
"%@	c #939192",
"&@	c #807F7D",
"*@	c #878584",
"=@	c #82807F",
"-@	c #777472",
";@	c #A3A2A1",
">@	c #C1C0C1",
",@	c #AFADAD",
"'@	c #929191",
")@	c #B6B5B5",
"!@	c #C3C3C2",
"~@	c #7F7D7B",
"{@	c #848281",
"]@	c #7D7B79",
"^@	c #BBBABA",
"/@	c #878686",
"(@	c #BBBBBA",
"_@	c #83817F",
":@	c #878684",
"<@	c #A19F9F",
"[@	c #A5A4A3",
"}@	c #8D8A8A",
"|@	c #817F7E",
"1@	c #BAB9BA",
"2@	c #A09E9F",
"3@	c #939090",
"4@	c #A9A7A8",
"5@	c #AEACAC",
"6@	c #898888",
"7@	c #BCBCBB",
"8@	c #BEBDBE",
"9@	c #BDBCBD",
"0@	c #B2B1B0",
"a@	c #B2B2B1",
"b@	c #AEAEAD",
"c@	c #AEADAC",
"d@	c #A4A3A2",
"e@	c #B6B6B5",
"f@	c #AEAEAE",
"g@	c #B8B7B8",
"h@	c #9F9D9E",
"i@	c #CDCCCC",
"j@	c #D7D6D6",
"k@	c #D8D9D9",
"l@	c #D9DAD9",
"m@	c #D8D7D7",
"n@	c #A4A2A3",
"o@	c #A3A3A3",
"p@	c #A6A5A5",
"q@	c #A2A2A1",
"r@	c #B0B0B0",
"s@	c #989695",
"t@	c #C0C0BF",
"u@	c #8F8E8E",
"v@	c #A4A2A2",
"w@	c #9E9C9C",
"x@	c #B2B2B2",
"y@	c #A0A0A0",
"z@	c #8C8989",
"A@	c #D7D8D8",
"B@	c #8F8E8C",
"C@	c #878585",
"D@	c #918E8E",
"E@	c #9A9998",
"F@	c #ABAAAB",
"G@	c #D4D3D4",
"H@	c #A2A0A0",
"I@	c #F8F7F8",
"J@	c #888586",
"K@	c #B1B1B0",
"L@	c #B2B1B2",
"M@	c #B2B0B1",
"N@	c #ADABAC",
"O@	c #B3B1B1",
"P@	c #AFADAE",
"Q@	c #868584",
"R@	c #939191",
"S@	c #BEBDBD",
"T@	c #ABA9AA",
"U@	c #C3C2C2",
"V@	c #B0AEAE",
"W@	c #A19FA0",
"X@	c #A2A1A0",
"Y@	c #B0B0AF",
"Z@	c #D1D1D0",
"`@	c #838181",
" #	c #959394",
".#	c #B9B8B9",
"+#	c #807E7E",
"@#	c #D0D1D1",
"##	c #8C8B8B",
"$#	c #B3B2B3",
"%#	c #B1AFB0",
"&#	c #A4A4A2",
"*#	c #A5A5A4",
"=#	c #B0AFB0",
"-#	c #858282",
";#	c #A7A6A5",
">#	c #CDCCCD",
",#	c #A6A4A5",
"'#	c #908E8D",
")#	c #8F8C8D",
"!#	c #AFAFAF",
". + + @ @ + + + @ # $ % & * # # @ @ # @ @ @ # # @ @ @ + + @ # # @ @ @ * # # # # * # # & & & & # @ # $ $ @ + + @ @ + + + + + + + ",
"+ = = - ; = = = > , ' ) ! ~ { > ; ; ] > ; ^ / / { > ; = ; ] ( _ - = _ : / < _ _ [ [ } | 1 2 3 4 , 5 6 7 < ; = - - = = = = = = = ",
"+ = = = = = = = = 8 9 0 a b ; = = - > = = ^ 4 } ( ] ; { > 8 [ c ^ 8 } d d [ e } f , ( f g h i 4 ^ : j k ^ = = = - = = = = = = = ",
"+ = = = = = = = ; > ; l m e = = { : n o 3 p q r s t u p v v w q u x r r y z A o B f < ] ^ e 3 d > < C D ( = = = = = = = = = = = ",
"+ = = = = = = ; = ; = E ! F > < e u G H I J K I L L M M N L O O L N N N O P Q R ' S > ; - < } l ; > s T l ; = = = = = = = = = = ",
"+ = = = = = = = = = ; < U V l 4 W X Y Z ] ^ d } e g / l , } 4 ( , ` 8 l `  ...+.I @.#.{ = - { - > > v $.> = = = = = = = = = = = ",
"+ = = = = = = = = = { ( %.&._ d 0 *.=.( ^ ; ] f d ( _ _ < 4 _ ; - { { > < /  .-.;.>.e l > = = - { > ,.p - = = = = = = = = = = = ",
"+ = = = = = = = = = - / %.'.] , @.*.e > = - { 8 l ^ - ] - > - = = ; ; - 8 , / ).!.~.-.{.< ^ - - > ^ w r > - = = = = = = = = = = ",
"+ = = = = = = = = = ; / ].0 l ^  .^.e ; = - ; > < { > ; - ] ; = ; = = = { 8 8 /.(.V _.,.f < = = ; e :.<.[.< > = = = = = = = = = ",
"+ = = = = = = = = = = l U }._ ] g ^.|.= = = ; < ` _ 8 { ] ^ = = = = = = { ] < - - ^ 1 1.] > = = ; 2.3.H 5 > = = = = = = = = = = ",
"+ = = = = = = = = = - l 4.5.< > } 6.7.= = = ; l ` / { > l 8 { = = = - > = = { { ( g 8.9.= = = = = - [ 0.a.l = = = = = = = = = = ",
"+ = = = ; = = = ; = - ] b.o ^ ; : c.d.; = = = ; ] l { ; { - ; = = = > ^ = - > l | e.*.l = = = = = = ; f.3.g.h.= = = = = = = = = ",
"+ ; = = = = = ; > ; ; < i.).; = j.*.k.; = = ; - - - = = ; ; = = = = = ; ; ; l n 4.l.b ; = = = = = = = > m.n.o.l = = = = = = = = ",
"+ = = = ; = = = - { ; p.%.@.> = _ q.r.= = = = = = = = = = = = = = = = ; ; ; } %.l.s.8 = = = = = = = = = ; [ t.u.< = = = = = = = ",
"+ = = = > = ; - { > = _ %.f.; = _ e.l > = = = = = = = = = = = = = = ; > > ` v.w.5 ( - = = = = = = = = = = x.5 3.y.z.; - = = - ^ ",
"@ > = = - - = = ; - ^ A.n.B.- = z.e.4 > ; = = = = = = = = = = = = = = ; C.u.w.: = = = = = = = = ; { ; = = = = D.E.g.f ] - - 8 ] ",
"# ] ; ; = ; ; ; = ^ | F.G.[ - ; , H.I.8 ] > = = = = = = = = = = = = ; J.K.w.L.; = = = = { / ; = > l > = = = = - M.N.%.e ( l l } ",
"* : [ f./ O.: 5 5 P.Q.G.} { = = 4 R.S.T./ ] = = = = = = = = = = = ; f U.V.B > = = = - < W.X.Y.= > < > = = = = = ^ A.:.H 3 | o 3 ",
"Z.m m 6.8.%.H 6.`.*. +7.; = = = l *..+++I.8 = = = = = = = - { = - 4 o.@+5 - ; - > ; 8 #+$+u.E = ; = = = = ; = = ; < '.%+*.6.H H ",
"# &+_ _ ] ^ , 5 e _ 8 ; ; ; = = f *+=+-+;+[ > > > >+- > < < l > d.,+@+e ^ ; - > { Y.'+c.)+!+8 = = = = - _ l < - { ] ( 4 } T.~+T.",
"+ ; = = = = = { ] ; = ; ; = = = 4 {+a ]+.+++X.s ^+p /+D (+(+_+X.6.:+<+{ > > _ ` 5 [+*+}+|+L 1+= = = - ( 5 } , { > { , _ 8 , ` ` ",
"@ ^ - = = > = 8 ] > ; - = = = = ( ^.2+a 3+s ,.,.k 4+5+[+6+1 7+}.o 5 ^ ; = > / Z 8+9+0+) a+b+{ = = - 8 4 5 [ l ^ ^ ] 4 8 ( d 4 4 ",
"* V | c+F 3 F o F 8 > ; = = ; = } H.0+{+4+} l l , { = ; - ; ; ; = = = = { ] } d+3+e+f+g+h+i+{ = - < , f } ` / ^ [ n i j+1 4+k+5+",
"$ l+l+m+K.u.n+Q.o+p+> = = = = - 5 {+*.q+f ] - ; ; ; - ; ; > { > ; = = { ( p+4+6.r+2+s+t+u+v+> = - 8 < ( : [ [ w+x+R.,+y+z+z+A+N ",
"+ - > / < 8 8 T.|+j 4 - = = = > } B+C+/ { ^ 8 > ] ` f ` f D+g [ ` f d E+F+G+*+r+H+I+I+t.u+N > = ; { ] 4 } 5 T.j a+q+p+/ l / 8 - ",
"+ = = = = = = _ j+t.J+p.- = = - } n 7.> = ^ f e #+K.G.z+K+S.z+K+K+z+G.S.U X I+r+H+n.a 0++. +] = ; - ^ ] l '.y.) 4+/ > ; ; > > ; ",
"+ = = = = = = - 8 m.H+C < = = 8 B } ( - - ^ 5 L+M+S.5+' 5+N+' }.n O+[+}.P+Q+)+n.R+u+S+a u+T+] = - { ] ( g U+R.d+d { - - { - - = ",
"+ = = = = = = = = = [ :./ = - 8 / ( _ { , ` 5+:+S.o d l ^ < ^ 8 ] { 8 ( 5 6+V+W+E.S+]+X+X+K.] = = > l F Y+E.[+} ] ; { ; 8 - ; = ",
"+ = = = = = = = = = h.H.Z+= ; > - > 8 ` e d+`+i.V : , - ; - - - = = > < _ d ' l. @h+h+.@+@o.@@= = > d  +#@k+d 8 > = = = ^ ] - = ",
"+ = = = = = = = = ^ } $@` = = = = ; ( F+2 %@++j+5 f { = = = = = = = ; 8 ^ > < &.E.&@*@=@-@U+- = = &+;@) =.l ] ^ > = = = - ] ; = ",
"+ = = = = = = = = ^ >@3.C+_ ; = = ] D+,@'@8.)@T.[ _ - ; ; = = = = = = ; = = = > !@Q.~@{@]@!+> = = ^@a+n ^ ; ; > ; = = = ; ; ; - ",
"@ ; ; = ; > = = = { d I /@5+{ = ; D.7+H+8.j+5 4 ( < ; > = = = = = = = = = = = = { (@F._@:@<@{ = = I.[@{ = = = = = = = = = = = 8 ",
"+ { ] = ; > = ; = > ( g (+}@g ; - B 9+K+F+d ^ ; - > = ; = = = = = = = = = = = = ; (.O+t.|@L { = = ).r ; = ; = = = = = = = = = ; ",
"+ > 8 ^ { ^ > = = - ^ / 1@:.n { 8 F+3.s ).f { = = = = = = = = = = = = = = = = ; > ^ } 2@.@q+^ = = ).t = = = = = = = = = = = = = ",
"@ ^ < _ ^ ] ] = = = - l N+3@)._ l 5 v+Q.s F 8 - = = = = = = = = = = = = = = = ; ] f >.g+4+( ; = = I.,.; = = = = = = = = = = = = ",
"+ _ f ^ ^ ^ { = = = = { s.6.g 4 l l o A+t.u <+< - = = = = = = = = = = = = = = ^ [ >.;.4+/ ; = = = ^@4@- ; ; ; = = = = = = = = = ",
"@ < 8 - { > - = = = = < V ^.@.l _ < : '.v+u+t [ ^ = = = = = = = = = = = = = ; / I #@t 5 _ ; = = = @.N p.; > { ; = = = = = = = ; ",
"@ 8 ] 8 / ] = = = = = ^ | 3+A.l , _ l , Z v+a+u ( - = = ; - ^ ] > ; - ^ 8 - ] 5@6@q+` , < ; = = = 7@x+, ; ^ < { = = = ; ; = = - ",
"@ 8 > < / - ; ; ; = ; > 8@3+9@d < ] _ - _ @.N Q.z t 0@G+a@b@w ,.t u b@y -.c@d@;.e@8 { ^ { - > ; ; ^@A+/ { - { - = = = ; = = = - ",
"+ - ; - < ] ] > = ; < / ' q.'.} ^ ; - = { d @.f@6+[+1 ' n n n 9@g@2 7+t $.2 p 5+, 8 _ < < l , { { O+h@d ^ ; ; = = = = = = = = = ",
"+ = = ] ( ( l _ - _ / ( ' 6.~+l { 8 ; = = > ] < - ; ; = = = = = ; - >+> > - - ] ^ ] < { 8 4 l > - n A+d > = ; - = = = = = = = = ",
"+ = = - { 8 ] { { ( ` [ }.q.[ - ^ _ > = = = = = = = = = = = = = = = = = = ; = = = = - _ ( 4 d , ] O+!+[ ] = - ; = = = = = = = = ",
"+ = = = = ; ; ; { 8 d ^@o.*.i@= ; { > = = ; 8 j@- - k@; - ; ; l@; ; > m@{ 8 l > = = > 8 { l [ ( , C+!+g ( { > ; = = = = = = = = ",
"+ = = = = = = > 8 l F K.t.1 ] = > ; = = ; l t L n@v+o@I v+R I M p@C q@q@L  +R / = = ; { > { _ ] ( r@s@=.4 - - > = = = = = = = = ",
"+ = = = = ; = ] } ~+U+) 7+` ; = ; ; = ^ ` w s+,.A.A.T.@.3 @.{.{.T.t@o I.=.k+u@v@< = = = = { ] ^ ( [+E.h@f.- = = = = = = = = = = ",
"+ = = = = = > f I.w@) V l ^ = = = = ; 4 /+}+,.} - ; = = - = = = = = ; ; ; ] F 3.L i@- = = ; = - l [ x@n.y@[ > ; = = = = = = = = ",
"+ = = = = = ^ ).Y+z@4+f ; = = = = = A@u g+G+( > = ; - - = = = = = = = - ; ; 8 n B@K+5 / { = = = - < [ N+=+2@E+, ; = = = = = = = ",
"+ = = = = = > L ;.4+f < > ; { = = ^ )@C@)@< ; = = = { > = = = = = ; ^ ^ ; = ; ] | D@E@n ( = = = = 8 < ] s.}+!+g ] = = = = = = = ",
"+ = = = = 8 F@C@T.8 > = > > { = G@u ~.x@_ = = = = = ; ; = = = = - ; > - ; = = = _ o X m F ] = = = - ; ; f 7+S+H@4 ; ; ; = ; - = ",
"I@0 O+4+4+A+J@f.] > = = ^ < ^ 4 ,.C@h ^ ; = = = = = = = = = = = ; - ; ; - = = = > < o :.S.e ^ ; ; = ; ; / >@6+}+B+7+2 K@}.)@L@)@",
"& u M@r y >.V ^ > ] ; ; < ` 5 X.C@t 4 = = = = = = = = = = = = = = = = ^ - = = ; = - / )@H+z+E+{ ; = = > ^ _ 4 5+>.r X.,.N@O@P@,.",
"+ - ; > ^ < ( > = = = - < d y Q@3 , { = = = = = = = = = = = = = = = ; > ; ; = = ; = ; { t@u@! <+- = - , 8 { ] > ] m@{ { - ; - ^ ",
"+ ; ; = = = ; ; = = { ( f.r Q@k+8 ; = = = = = = = = = = = = = = = - - { > = = ; ; = = = ] ^@Q+8.L.8 ] ( _ ] - = = ; - = = = = = ",
"@ _ ( { ; ] { ; = ; / f D+e.B@A.( ] ; = = = = = = = ; ; = = = = = ; ; ; = = = = = = ; > < B H@h+x@: ( , / f / / / 4 _ ^ ^ < < ^ ",
"$ A+X.!@[ 5 4 - = = > ^ ] '+R@c.S@8 ; = = = = = = = = = = ; = = = = = = = = = = = ; { 8 ] 5+F.T@U@/ l } [ g T.V@B+Y 2@2@W@A+!+X@",
"& c@.@s 5 g e f { ; = = ; _ =.R@*.5 > = = = = = = = = = = ; ; = = = = = = = = = = = { < / [+z+I.4 < ] } g 7+%.a+;@K@9.0@Y@b@6+j+",
"@ ` )@=@r F+I.| : - ; ^ { < [ 5+%+{+!@< - = = = = = = = ; ] > = ; ; = = ; = = = = ; ; 8 5 ,.o.g ` , / : [+%+^.q+5 f 8 ] 8 _ ] ; ",
"+ ; Z@7+`@[@I.o @.} f < > ^ 4 / =.:+%+=.{ = ; = = = = = ; - - = ; = = = ; ; ; { ; = = ( F+>.h@).} d 5 d+H. #.#d ] ^ = = = = = = ",
"+ = > ( h +#y F e @.@.4 ] ] { ] ` .#V.b.@#= = = = = = = = ; ; = = = - ] - ; > 8 > = ] g u ##v+>@d e $#6.9+7+} , , - = = = = = = ",
"+ = = - , i =@[@| o 3 o : 8 ; { , [ 4+3+` ; = = = = = = = - ^ _ > ; ; ^ { > ^ < ] < f 6+]+y+%#B ` g &#6.L+o : ` l ; = = = = = = ",
"+ = = - - / n =@*#'.F+j+I.( , l ^ - @.6.B { = = = = = ; { < f : , _ l f 4 / ` , l f %#Q.z+p =#I.: g 6 >.c+d B : < ; = = = = = = ",
"+ = = = = ^ _ }.-#;#5.| I.T.e 4 ^ { S@e.T.f >#, ] 8 8 ( [ F | W I.I. .F+S@1@1@o (@Y@:.z+f@p L+F+f g N T / > ] l , - = = = = = = ",
"+ = = ; = = = l K@{@,#B F I.| B , ( O+l.0.u@'#)#3.0.H+3.3.u@:+:+`+H+H+u@H+V.'@w.w.:.m+/+t !#x@B 4 g n@F@_ = > > > = = = = = = = ",
"+ = = - ^ = = { ( C+|@q T.| T.e / f T.B } d } d 4 f f < ( } g @.~+F+~+P.#+g@^@' 3 3 )@L@r@x@1 : ` F 6 r ] - ; { ; = = = = = = = "};
